<?xml version="1.0" encoding="utf-8"?>
<!-- Generator: Adobe Illustrator 24.0.2, SVG Export Plug-In . SVG Version: 6.00 Build 0)  -->
<svg version="1.1" id="Слой_1" xmlns="http://www.w3.org/2000/svg" xmlns:xlink="http://www.w3.org/1999/xlink" x="0px" y="0px"
	 viewBox="0 0 104.3 152.2" style="enable-background:new 0 0 104.3 152.2;" xml:space="preserve">
<style type="text/css">
	.st0{fill:#9D9D9D;}
	.st1{fill:#DADADA;}
	.st2{fill:#996533;}
	.st3{fill:#CC9A67;}
</style>
<g>
	<path class="st0" d="M52.3,152.2c0-6,0-11.9-0.1-17.9c12-7.1,23.9-14.2,35.9-21.2c0.1-16.7-0.1-33.4,0-50.2
		c5.4,2.9,11.1,5.9,16.5,8.8c-0.1,16.9-0.2,33.9-0.3,50.8C87,132.5,69.7,142.4,52.3,152.2z"/>
</g>
<path class="st1" d="M52.3,152.2c0-6,0-11.9-0.1-17.9c-11.9-7.1-23.8-14.2-35.7-21.2c-0.3-16.7,0.3-33.3,0-50
	C11.4,66,5.2,68.9,0,71.8c0.1,16.9,0.2,33.9,0.3,50.8C17.6,132.5,35,142.4,52.3,152.2z"/>
<path class="st2" d="M68.9,9.8c0.2,37.4-0.2,74.9,0,112.3c-10.8,6.5-15.7,9.8-15.7,9.8c0,0,0,0,0,0c0-0.1-0.1-45.1,0-132
	C58.4,3.3,63.6,6.6,68.9,9.8z"/>
<path class="st2" d="M86,41.5c0.2,37.4-0.2,32.9,0,70.3c-10.8,6.5-15.7,9.8-15.7,9.8c0,0,0,0,0,0c0-0.1-0.1-3.1,0-90
	C81.8,38.8,85,40.8,86,41.5z"/>
<path class="st3" d="M35.7,9.8c-0.2,37.4,0.2,74.9,0,112.3c10.8,6.5,15.7,9.8,15.7,9.8c0,0,0,0,0,0c0-0.1,0.1-45.1,0-132
	C46.2,3.3,41,6.6,35.7,9.8z"/>
<path class="st3" d="M18.6,41.5c-0.2,37.4,0.2,32.9,0,70.3c10.8,6.5,15.7,9.8,15.7,9.8c0,0,0,0,0,0c0-0.1,0-16,0-90
	C22.8,38.8,19.7,40.8,18.6,41.5z"/>
</svg>
