<?xml version="1.0" encoding="utf-8"?>
<!-- Generator: Adobe Illustrator 24.0.2, SVG Export Plug-In . SVG Version: 6.00 Build 0)  -->
<svg version="1.1" id="Слой_1" xmlns="http://www.w3.org/2000/svg" xmlns:xlink="http://www.w3.org/1999/xlink" x="0px" y="0px"
	 viewBox="0 0 283.5 124.5" style="enable-background:new 0 0 283.5 124.5;" xml:space="preserve">
<style type="text/css">
	.st0{fill:#010202;}
	.st1{fill:#F4A303;}
</style>
<g>
	<path class="st0" d="M72.3,89.3c-0.5,1.3-1.2,2.7-2,3.9c-0.8,1.3-1.7,2.4-2.7,3.5c-1,1-2.2,1.9-3.5,2.6c-1.3,0.7-2.7,1.1-4.3,1.2
		c-2.2,0.2-4.1-0.4-5.6-1.8c-1.5-1.4-2.8-3.3-3.9-5.6c-1.1-2.3-2-5-2.8-8.1c-0.8-3-1.5-6.1-2.1-9.2c-0.7,1.5-1.3,3.1-1.9,4.8
		c-0.6,1.7-1.1,3.4-1.6,5.2c-0.5,1.8-1,3.7-1.5,5.6c-0.5,1.9-1,3.9-1.6,5.9c-0.1,0.4-0.3,0.9-0.5,1.5c-0.2,0.5-0.4,1.1-0.7,1.6
		c-0.3,0.5-0.7,1-1.1,1.3s-1,0.6-1.6,0.6c-0.5,0-0.9,0-1.3-0.2c-0.4-0.2-0.7-0.4-1-0.7c-0.3-0.3-0.6-0.6-0.8-1
		c-0.2-0.4-0.4-0.7-0.6-1c-0.9-1.6-1.6-3.2-2.2-4.8c-0.6-1.7-1.1-3.4-1.6-5.1c-0.5-1.8-0.9-3.7-1.3-5.6c-0.4-2-0.8-4.1-1.2-6.4
		c-0.6,1.8-1.1,3.6-1.6,5.2c-0.5,1.7-0.9,3.3-1.3,4.9c-0.4,1.6-0.8,3.3-1.2,5.1c-0.4,1.8-0.8,3.6-1.3,5.7c-0.1,0.5-0.2,1-0.3,1.5
		c-0.1,0.5-0.3,1-0.5,1.5c-0.2,0.5-0.5,0.8-0.8,1.2c-0.4,0.3-0.8,0.5-1.4,0.6c-0.9,0.1-1.6-0.2-2.1-0.7c-0.5-0.6-0.9-1.2-1.3-2
		c-0.5-1-1.1-2.5-1.6-4.4c-0.6-1.9-1.1-3.9-1.6-6.2c-0.5-2.2-1-4.5-1.4-6.9c-0.4-2.4-0.7-4.6-0.9-6.7c-0.2-2,0.2-3.5,1.2-4.6
		c1-1,2.4-1.6,4.1-1.8c0.1,0,0.3,0,0.5,0c0.2,0,0.4,0,0.7,0c0.2,0,0.4,0.1,0.6,0.2c0.2,0.1,0.2,0.2,0.2,0.4c-0.1,2.5-0.1,5,0,7.2
		c0.1,2.3,0.2,4.5,0.5,6.6c0.2,2.1,0.5,4.2,0.9,6.3c0.4,2,0.8,4.1,1.3,6.3c0.4-2.1,0.9-4.1,1.3-6c0.4-1.9,0.9-3.8,1.4-5.7
		c0.5-1.9,1-3.8,1.6-5.8c0.6-2,1.2-4,1.9-6.2c0.4-1.1,0.8-1.9,1.3-2.4c0.5-0.5,1.1-0.8,2-0.8c1-0.1,1.9,0.2,2.6,1
		c0.7,0.7,1.1,1.6,1.4,2.6c0.4,1.8,0.9,3.7,1.2,5.6c0.4,1.9,0.8,3.8,1.2,5.7c0.4,1.9,0.9,3.8,1.4,5.7c0.5,1.9,1.2,3.6,1.9,5.3
		c0.6-1.9,1.1-3.9,1.6-6c0.5-2.1,1.1-4.2,1.7-6.3c0.6-2.1,1.2-4.2,1.9-6.2c0.7-2,1.4-4,2.2-5.8c0.4-0.9,0.9-1.6,1.4-2.2
		c0.5-0.6,1.3-1,2.2-1c0.5,0,1,0,1.4,0.2c0.4,0.2,0.8,0.5,1.1,0.8c0.3,0.4,0.6,0.7,0.8,1.2c0.2,0.4,0.4,0.9,0.5,1.3
		c0.3,1,0.6,2.4,0.9,4c0.3,1.6,0.7,3.4,1.1,5.2c0.4,1.8,0.9,3.7,1.5,5.5c0.6,1.9,1.2,3.5,2,5c0.7,1.5,1.6,2.7,2.5,3.6
		c0.9,0.9,2,1.3,3.3,1.2c1-0.1,2-0.4,2.9-0.8c0.9-0.5,1.7-1,2.5-1.7c0.8-0.7,1.5-1.4,2.1-2.2c0.6-0.8,1.2-1.7,1.7-2.5L72.3,89.3z"/>
	<path class="st0" d="M97.8,87c-0.7,1.4-1.6,2.8-2.6,4c-1,1.2-2.2,2.3-3.5,3.3c-1.3,1-2.7,1.7-4.1,2.3c-1.5,0.6-3,1-4.7,1.1
		c-2,0.2-3.8,0-5.5-0.6c-1.6-0.5-3-1.4-4.2-2.5c-1.2-1.1-2.1-2.5-2.8-4c-0.7-1.6-1.1-3.3-1.3-5.3c-0.2-2.1-0.1-4.1,0.4-6
		c0.4-1.9,1.1-3.7,2.1-5.5c0.9-1.7,2.1-3.3,3.4-4.8c1.3-1.5,2.8-2.8,4.3-4.1l0.7,0.4c-1.6,2.2-2.8,4.7-3.7,7.4
		c-0.9,2.7-1.2,5.4-0.9,8.2c0.1,1.6,0.5,3.2,1,4.6c0.5,1.5,1.2,2.7,2.1,3.8c0.9,1.1,2,1.9,3.3,2.5c1.3,0.6,2.9,0.8,4.7,0.6
		c2.1-0.2,4.1-0.8,5.9-1.9c1.8-1.1,3.5-2.3,4.9-3.8L97.8,87z M79.6,52.6c0.1,0.7,0,1.5-0.3,2.2c-0.3,0.7-0.6,1.4-1.1,2
		c-0.5,0.6-1,1.1-1.7,1.5c-0.7,0.4-1.3,0.7-2.1,0.7c-0.9,0.1-1.7-0.2-2.3-0.7c-0.6-0.6-1-1.3-1-2.2c-0.1-0.7,0-1.4,0.3-2.2
		c0.3-0.7,0.6-1.4,1.1-2c0.5-0.6,1-1.1,1.7-1.5c0.6-0.4,1.3-0.6,2-0.7c0.9-0.1,1.7,0.1,2.3,0.7C79.2,50.9,79.5,51.7,79.6,52.6z"/>
	<path class="st0" d="M124.4,86.5c-0.9,2.5-2.4,4.5-4.4,6.1c-2,1.6-4.3,2.5-6.9,2.7c-2.2,0.2-4.2-0.3-6-1.5c-1.8-1.2-3.5-2.8-5-4.8
		c-1.5-2-2.8-4.4-4-7c-1.2-2.6-2.1-5.3-3-8.1c-0.8-2.8-1.5-5.4-2-8c-0.5-2.6-0.8-4.8-1-6.8c-0.2-2.4-0.3-5-0.3-7.8
		c0-2.9,0.2-5.8,0.5-8.7c0.3-2.9,0.8-5.8,1.5-8.6c0.7-2.8,1.6-5.3,2.7-7.5c1.1-2.2,2.5-4,4.1-5.5c1.6-1.4,3.5-2.2,5.8-2.4
		c1.9-0.2,3.5,0.3,4.8,1.3c1.3,1,2.3,2.3,3.2,3.9c0.8,1.6,1.4,3.3,1.8,5.1c0.4,1.8,0.7,3.4,0.8,4.9c0.3,3.9,0.2,7.7-0.4,11.6
		c-0.6,3.8-1.5,7.5-2.8,10.9c-1.3,3.5-2.9,6.6-4.8,9.5c-1.9,2.9-4,5.4-6.4,7.4c0.7,2.4,1.5,4.7,2.4,6.9c0.9,2.2,1.9,4.2,3.1,5.9
		c1.2,1.7,2.4,3,3.9,4c1.4,1,3,1.4,4.6,1.2c1.7-0.1,3.1-0.6,4.3-1.4c1.2-0.8,2.2-1.9,3.1-3.3L124.4,86.5z M99.3,55.2
		c0,0.8,0.1,1.8,0.2,2.9c0.1,1.1,0.3,2.4,0.5,3.8c0.2,1.4,0.5,2.8,0.8,4.4c0.3,1.6,0.7,3.2,1.1,4.8c2.2-2.4,4.1-4.9,5.5-7.7
		c1.5-2.8,2.6-5.7,3.4-8.9c0.8-3.1,1.3-6.4,1.5-9.8c0.2-3.4,0.1-6.9-0.2-10.5c0-0.5-0.1-1.1-0.2-1.8c-0.1-0.8-0.2-1.6-0.4-2.4
		c-0.2-0.9-0.4-1.7-0.7-2.5c-0.3-0.8-0.6-1.6-1-2.3c-0.4-0.7-0.9-1.2-1.4-1.6c-0.6-0.4-1.2-0.6-1.9-0.5c-1.4,0.1-2.5,0.9-3.4,2.3
		c-0.9,1.4-1.6,3.2-2.2,5.4c-0.6,2.1-1,4.5-1.2,7.1c-0.3,2.6-0.4,5-0.5,7.3c-0.1,2.3-0.1,4.4,0,6.3C99.2,53.2,99.3,54.5,99.3,55.2z"
		/>
	<path class="st0" d="M170.2,80.5c-0.5,1.3-1.1,2.7-1.9,4c-0.8,1.4-1.6,2.6-2.6,3.7c-1,1.1-2.1,2.1-3.3,2.8
		c-1.2,0.8-2.6,1.2-4.1,1.3c-1.6,0.1-3.1-0.2-4.3-0.9c-1.3-0.7-2.4-1.8-3.3-3.1c-0.9-1.3-1.8-2.8-2.5-4.6c-0.7-1.7-1.3-3.6-1.8-5.4
		c-0.5-1.9-1-3.8-1.4-5.6c-0.4-1.9-0.8-3.6-1.1-5.2c-1,1.6-1.9,3.3-2.7,5.1c-0.8,1.8-1.5,3.6-2.2,5.5c-0.7,1.9-1.4,3.8-2,5.7
		c-0.7,1.9-1.4,3.9-2.2,5.8c-0.2,0.4-0.4,0.9-0.5,1.3c-0.2,0.5-0.4,0.9-0.6,1.3c-0.3,0.4-0.6,0.7-0.9,1c-0.4,0.3-0.8,0.5-1.4,0.5
		c-0.5,0-0.9,0-1.3-0.2c-0.4-0.2-0.7-0.3-0.9-0.6c-0.3-0.2-0.5-0.5-0.6-0.8c-0.2-0.3-0.3-0.6-0.4-0.9c-0.6-1.5-1.1-3.4-1.7-5.7
		c-0.5-2.3-1.1-4.8-1.5-7.4c-0.5-2.6-0.9-5.3-1.3-8.1c-0.4-2.7-0.7-5.3-0.9-7.6c-0.3-3.3-0.4-6.8-0.3-10.4c0.1-3.6,0.5-7.1,1.1-10.6
		c0.6-3.5,1.5-6.7,2.7-9.9c1.2-3.1,2.6-5.9,4.3-8.3c1.7-2.4,3.8-4.4,6.2-6c2.4-1.5,5.1-2.5,8.2-2.7c2-0.2,3.7,0.3,5,1.4
		c1.3,1.1,2,2.8,2.2,5c0.3,3.3,0,6.6-0.9,9.8s-2.1,6.2-3.7,9.2c-1.6,3-3.3,5.8-5.3,8.5c-2,2.7-3.9,5.2-5.8,7.5l-0.7-0.5
		c0.8-1.1,1.7-2.4,2.6-4c0.9-1.6,1.8-3.3,2.6-5.1c0.8-1.8,1.6-3.7,2.3-5.7c0.7-2,1.4-4,1.9-5.9c0.5-1.9,0.9-3.8,1.1-5.6
		c0.2-1.8,0.3-3.4,0.2-4.8c-0.1-0.8-0.2-1.5-0.4-2.1c-0.2-0.7-0.5-1.2-0.9-1.7c-0.4-0.5-0.9-0.9-1.5-1.1c-0.6-0.3-1.3-0.4-2.1-0.3
		c-1.6,0.1-3,0.9-4.3,2.2c-1.3,1.3-2.4,3.1-3.4,5.3c-1,2.2-1.8,4.7-2.4,7.5c-0.6,2.8-1.1,5.7-1.5,8.8c-0.4,3-0.6,6.1-0.6,9.2
		c-0.1,3.1,0,6,0.3,8.8c0.2,1.9,0.3,3.8,0.5,5.7c0.2,1.9,0.4,3.9,0.7,6c0.3,2.1,0.6,4.3,1.1,6.6c0.4,2.3,1,4.8,1.7,7.5
		c1.2-4.2,2.5-8.4,4-12.5c1.4-4.1,3-7.9,4.8-11.3c0.2-0.5,0.5-1,0.8-1.5c0.3-0.5,0.6-0.9,0.9-1.4c0.3-0.4,0.7-0.8,1.1-1
		c0.4-0.3,0.9-0.5,1.4-0.5c0.6-0.1,1.1,0.1,1.5,0.4c0.4,0.3,0.7,0.7,1,1.2c0.3,0.5,0.5,1,0.6,1.6c0.1,0.6,0.3,1.1,0.4,1.5
		c0.2,1,0.5,2.4,0.8,4c0.3,1.6,0.7,3.4,1.1,5.3c0.4,1.9,0.9,3.7,1.4,5.6c0.5,1.9,1.2,3.5,1.9,5c0.7,1.5,1.5,2.7,2.5,3.6
		c0.9,0.9,1.9,1.3,3.1,1.2c0.9-0.1,1.9-0.4,2.8-0.8c0.9-0.5,1.8-1.1,2.6-1.7c0.8-0.7,1.5-1.5,2.2-2.3c0.7-0.9,1.2-1.7,1.7-2.5
		L170.2,80.5z"/>
	<path class="st0" d="M195.7,78.5c-0.7,1.4-1.6,2.8-2.6,4c-1,1.2-2.2,2.3-3.5,3.3c-1.3,1-2.7,1.7-4.1,2.3c-1.5,0.6-3,1-4.7,1.1
		c-2,0.2-3.8,0-5.5-0.6c-1.6-0.5-3-1.4-4.2-2.5c-1.2-1.1-2.1-2.5-2.8-4c-0.7-1.6-1.1-3.3-1.3-5.3c-0.2-2.1-0.1-4.1,0.4-6
		c0.4-1.9,1.1-3.7,2.1-5.5c0.9-1.7,2.1-3.3,3.4-4.8c1.3-1.5,2.8-2.8,4.3-4.1l0.7,0.4c-1.6,2.2-2.8,4.7-3.7,7.4
		c-0.9,2.7-1.2,5.4-0.9,8.2c0.1,1.6,0.5,3.2,1,4.6c0.5,1.5,1.2,2.7,2.1,3.8c0.9,1.1,2,1.9,3.3,2.5c1.3,0.6,2.9,0.8,4.7,0.6
		c2.1-0.2,4.1-0.8,5.9-1.9c1.8-1.1,3.5-2.3,4.9-3.8L195.7,78.5z M177.5,44c0.1,0.7,0,1.5-0.3,2.2c-0.3,0.7-0.6,1.4-1.1,2
		c-0.5,0.6-1,1.1-1.7,1.5c-0.7,0.4-1.3,0.7-2.1,0.7c-0.9,0.1-1.7-0.2-2.3-0.7c-0.6-0.6-1-1.3-1-2.2c-0.1-0.7,0-1.4,0.3-2.2
		c0.3-0.7,0.6-1.4,1.1-2c0.5-0.6,1-1.1,1.7-1.5c0.6-0.4,1.3-0.6,2-0.7c0.9-0.1,1.7,0.1,2.3,0.7C177.1,42.4,177.4,43.1,177.5,44z"/>
	<path class="st0" d="M223.9,51.6c0.2,1.8,0.1,4-0.1,6.4c-0.2,2.4-0.7,4.9-1.3,7.5c-0.6,2.6-1.4,5.1-2.3,7.7c-0.9,2.5-2,4.8-3.2,6.8
		c-1.2,2-2.6,3.7-4,5c-1.5,1.3-3.1,2-4.8,2.2c-1,0.1-2.1-0.3-3-1.2c-1-0.9-1.9-2-2.7-3.2c-0.8-1.3-1.5-2.6-2.2-3.9
		c-0.6-1.3-1.1-2.3-1.5-3.1c-0.9-2.1-1.8-4.2-2.6-6.3c-0.8-2.1-1.5-4.2-2.2-6.4c0-0.1-0.1-0.4-0.2-0.8c-0.1-0.4-0.2-0.8-0.4-1.2
		c-0.2-0.4-0.3-0.8-0.5-1.1c-0.2-0.3-0.4-0.5-0.5-0.5c-0.3,0-0.7,0.1-1.1,0.3c-0.4,0.1-0.8,0.3-1.2,0.5c-0.4,0.2-0.8,0.4-1.1,0.6
		c-0.4,0.2-0.7,0.4-0.9,0.6l-0.5-0.5c0.4-0.5,0.9-1,1.6-1.7c0.7-0.6,1.4-1.2,2.2-1.8c0.8-0.6,1.6-1,2.4-1.5c0.8-0.4,1.6-0.7,2.2-0.7
		c0.9-0.1,1.6,0.2,2.3,0.9c0.7,0.7,1.3,1.6,1.8,2.8c0.6,1.2,1.1,2.6,1.6,4.3c0.5,1.7,1.1,3.4,1.7,5.2c0.1,0.3,0.3,0.8,0.6,1.7
		c0.3,0.8,0.6,1.8,1.1,2.9c0.4,1.1,0.9,2.3,1.4,3.5c0.5,1.2,1,2.3,1.5,3.3c0.5,1,1,1.8,1.4,2.5c0.5,0.6,0.9,1,1.2,0.9
		c1-0.1,1.9-0.5,2.7-1.4c0.8-0.8,1.6-1.9,2.2-3.2c0.7-1.3,1.2-2.7,1.7-4.3c0.5-1.6,0.9-3.2,1.2-4.8c0.3-1.6,0.5-3.2,0.6-4.7
		c0.1-1.5,0.1-2.8,0-3.9c-0.2-2.1-0.6-4.1-1.2-6.2c-0.6-2-1.4-3.8-2.5-5.3c-1.1-1.5-2.3-2.7-3.8-3.4c-1.5-0.8-3.2-0.9-5.1-0.5
		l-0.2-0.5c1.1-0.6,2.2-1,3.3-1.4c1.1-0.4,2.3-0.6,3.4-0.7c3.1-0.3,5.6,0.3,7.5,1.7C222.5,46.2,223.6,48.4,223.9,51.6z"/>
	<path class="st0" d="M264.2,72.5c-0.8,1.4-1.8,2.8-3,4.1c-1.2,1.3-2.6,2.4-4,3.4c-1.5,1-3.1,1.8-4.7,2.5c-1.7,0.7-3.4,1.1-5.1,1.2
		c-2.4,0.2-4.8,0.1-6.9-0.3c-2.2-0.4-4.1-1.2-5.8-2.4c-1.7-1.2-3.1-2.7-4.1-4.6c-1.1-1.9-1.7-4.1-1.9-6.8c-0.2-2.6,0-5,0.8-7.4
		c0.8-2.3,1.9-4.4,3.4-6.2c1.5-1.8,3.4-3.3,5.6-4.5c2.2-1.2,4.6-1.9,7.1-2.1c1.2-0.1,2.4,0,3.5,0.2c1.1,0.2,2.1,0.7,2.9,1.3
		c0.8,0.6,1.5,1.4,2.1,2.3c0.5,0.9,0.9,2,1,3.3c0.1,1.5-0.1,2.9-0.6,4.1c-0.5,1.2-1.2,2.3-2.2,3.2c-0.9,1-2,1.8-3.2,2.5
		c-1.2,0.7-2.5,1.3-3.9,1.7c-1.4,0.5-2.7,0.9-4,1.1c-1.3,0.3-2.6,0.5-3.7,0.6l-1.3,0.1c0.8,3.2,2.3,5.6,4.5,7.2
		c2.3,1.5,5.3,2.1,9,1.8c2.7-0.2,5.2-0.9,7.7-2.1c2.5-1.2,4.6-2.6,6.5-4.5L264.2,72.5z M235.7,68.3l1.3-0.1c1.3-0.1,2.6-0.4,3.9-1
		c1.3-0.5,2.5-1.3,3.5-2.2c1-0.9,1.8-2,2.5-3.2c0.6-1.2,0.9-2.6,0.7-4.1c-0.1-1.5-0.6-2.7-1.3-3.6c-0.7-0.9-1.8-1.3-3.4-1.2
		c-1.6,0.1-2.9,0.7-3.9,1.8c-1,1-1.8,2.3-2.4,3.7c-0.6,1.4-0.9,2.9-1.1,4.5c-0.2,1.6-0.2,2.9-0.1,4.1L235.7,68.3z"/>
</g>
<polygon class="st1" points="195.7,13.3 195.7,4.7 203.2,0.4 210.6,4.7 210.6,13.3 203.2,17.6 "/>
<polygon class="st1" points="187.2,28.4 187.2,19.8 194.6,15.5 202.1,19.8 202.1,28.4 194.6,32.6 "/>
<polygon class="st1" points="204.2,28.4 204.2,19.8 211.7,15.5 219.1,19.8 219.1,28.4 211.7,32.6 "/>
<path d="M81.2,99.5"/>
<path d="M0,124.3c0-0.1,0.2-0.2,0.4-0.3c12.8-5.5,246.7-40.2,276.3-27c1.7,0.7,6.9,3.1,6.7,3.5c-0.2,0.4-6.3-1.5-7-1.7
	c-7.5-2.3-30.4-2.6-88.7,3.4c-43.1,5.1-78.2,9.5-103,12.6C46,119.7,0.2,125.7,0,124.3z"/>
</svg>
