<svg width="306" height="239" viewBox="0 0 306 239" fill="none" xmlns="http://www.w3.org/2000/svg">
<path fill-rule="evenodd" clip-rule="evenodd" d="M26.4014 4.25C25.0434 6.588 22.9944 10.359 21.8464 12.631L19.7594 16.763L25.4894 19.334C43.5884 27.457 59.7064 27.87 89.7904 20.984C117.279 14.692 125.637 14.754 135.382 21.32C149.074 30.546 148.2 50.936 133.998 53.6C127.725 54.777 118.99 52.221 102.679 44.435C83.0014 35.042 74.7474 32.781 60.1794 32.792C42.8184 32.805 30.7384 36.455 19.4304 45.103C2.59841 57.976 -2.90553 78.529 5.66747 96.5C12.0395 109.857 30.9274 126.14 56.6794 140.475C75.3634 150.875 86.7234 158.941 96.7784 168.948C109.395 181.502 112.191 186.97 112.15 199C112.126 206.037 111.668 208.477 109.49 213.175C102.352 228.568 86.2984 237.168 67.3774 235.736C47.8794 234.26 28.9434 222.292 17.0734 203.943C14.6034 200.124 12.2524 197 11.8494 197C11.4464 197 8.49642 199.648 5.29442 202.884C1.01342 207.21 -0.367567 209.263 0.0804325 210.634C1.03543 213.562 14.2814 222.884 24.1794 227.594C46.5404 238.234 72.9124 241.638 93.1794 236.501C114.794 231.022 131.209 215.756 136.147 196.54C140.706 178.8 135.364 162.704 119.687 146.95C110.091 137.306 98.9554 129.476 80.6794 119.521C61.5144 109.082 48.9884 100.456 39.9364 91.461C29.1784 80.772 26.3114 74.911 26.8354 64.679C27.7084 47.649 40.7704 35.744 58.6014 35.727C71.2644 35.715 78.9824 39.931 96.7524 56.569C113.091 71.867 122.507 75.936 133.897 72.625C137.996 71.434 140.423 69.916 143.403 66.684C154.433 54.717 152.781 32.302 140.043 21.09C130.494 12.684 117.796 11.458 95.6794 16.806C68.9204 23.277 58.5184 24.329 49.0674 21.523C42.0864 19.45 36.3404 14.17 32.6514 6.442C30.9604 2.899 29.4184 0 29.2234 0C29.0284 0 27.7584 1.912 26.4014 4.25ZM174.941 36.25C173.632 37.914 169.276 55.93 170.005 56.66C170.32 56.974 173.638 55.48 177.378 53.339C187.528 47.53 195.597 44.176 206.437 41.262C215.572 38.806 217.877 38.617 243.429 38.238C267.367 37.882 270.679 38.018 270.679 39.359C270.679 40.198 263.873 53.173 255.554 68.192C241.582 93.418 231.421 111.855 218.182 136C215.317 141.225 206.893 156.525 199.464 170C192.035 183.475 182.128 201.475 177.448 210C172.769 218.525 167.756 227.612 166.31 230.192C164.863 232.773 163.679 235.136 163.679 235.442C163.679 235.749 193.324 236 229.557 236H295.432L298.095 225.373C299.56 219.528 300.539 214.525 300.27 214.256C300.001 213.987 296.269 215.779 291.979 218.239C282.482 223.683 273.591 227.279 262.532 230.148C255.203 232.05 250.779 232.367 226.429 232.74C207.405 233.031 198.679 232.834 198.679 232.112C198.679 231.534 202.89 223.509 208.037 214.28C220.315 192.264 252.563 134.076 259.179 122C262.041 116.775 272.82 97.2 283.132 78.5C293.444 59.8 302.914 42.615 304.176 40.312C305.438 38.008 306.216 35.871 305.907 35.562C305.598 35.253 276.226 35 240.635 35C190.057 35 175.709 35.273 174.941 36.25Z" fill="#003487"/>
</svg>
